<svg xmlns="http://www.w3.org/2000/svg" width="51" height="20" viewBox="0 0 51 20" fill="none">
  <g clip-path="url(#a)">
    <path d="M4.23.668H.605v3.605H4.23V.668Z" fill="currentColor"/>
    <path d="M4.14 19.449V6.454H.695v12.982h3.444v.013Zm22.804.128v-3.181c-.503 0-.929-.026-1.238-.077-.361-.052-.632-.18-.813-.359-.18-.18-.296-.437-.36-.783-.052-.321-.078-.744-.078-1.257V9.391h2.49V6.454h-2.49V1.399h-3.443v12.56c0 1.064.09 1.962.27 2.68.181.706.49 1.284.917 1.72.425.436.993.744 1.677.937.696.192 1.573.282 2.618.282h.45ZM46.652 19.449V.398h-3.444v19.05h3.444ZM17.695 7.736c-.954-1.026-2.296-1.54-3.998-1.54-.826 0-1.587.168-2.257.502a5.36 5.36 0 0 0-1.716 1.385l-.18.244V6.454h-3.393v12.982h3.418V12.522c0-.077 0-.154 0-.231.039-1.219.335-2.117.903-2.694.606-.616 1.341-.924 2.18-.924.993 0 1.754.308 2.257.898.49.59.748 1.424.748 2.489v12.377c.013-1.848-.477-3.31-1.432-4.337Zm23.733 5.196c0-.937-.168-1.81-.49-2.63a7.073 7.073 0 0 0-1.38-2.143 6.567 6.567 0 0 0-2.129-1.436 6.784 6.784 0 0 0-2.734-.514 6.95 6.95 0 0 0-2.657.526 7.09 7.09 0 0 0-2.154 1.437 7.138 7.138 0 0 0-1.445 2.142 6.74 6.74 0 0 0-.529 2.643c0 .936.168 1.822.503 2.642a7.106 7.106 0 0 0 1.406 2.143 6.628 6.628 0 0 0 2.18 1.437 7.222 7.222 0 0 0 2.799.538c2.915 0 4.72-1.321 5.804-2.553l-2.477-1.873c-.516.616-1.753 1.45-3.301 1.45-.968 0-1.767-.218-2.373-.667a3.34 3.34 0 0 1-1.02-1.757l-.038-.116h10.254v-1.218Zm-10.228-1.193c0-.95 1.096-2.604 3.457-2.617 2.36-.013 3.47 1.642 3.47 2.591l-6.927.026Z" fill="currentColor"/>
  </g>
  <defs>
    <clipPath id="a">
      <rect width="51" height="20" fill="white"/>
    </clipPath>
  </defs>
</svg>
